<?xml version="1.0" standalone="no"?>
<!DOCTYPE svg PUBLIC "-//W3C//DTD SVG 20010904//EN"
 "http://www.w3.org/TR/2001/REC-SVG-20010904/DTD/svg10.dtd">
<svg version="1.0" xmlns="http://www.w3.org/2000/svg"
 width="700.000000pt" height="700.000000pt" viewBox="0 0 700.000000 700.000000"
 preserveAspectRatio="xMidYMid meet">
<metadata>
Created by potrace 1.14, written by Peter Selinger 2001-2017
</metadata>
<g transform="translate(0.000000,700.000000) scale(0.100000,-0.100000)"
fill="#000000" stroke="none">
<path d="M1740 6497 c-3 -2 -30 -7 -60 -10 -30 -4 -95 -18 -145 -32 -369 -107
-659 -389 -779 -759 -24 -72 -28 -93 -46 -206 -9 -56 -6 -294 4 -340 50 -229
130 -401 254 -549 25 -29 605 -613 1289 -1297 l1243 -1243 1238 1237 c680 681
1260 1264 1288 1297 132 154 234 377 261 572 10 72 10 269 1 343 -56 422 -378
805 -786 934 -46 14 -121 33 -165 40 -90 16 -286 19 -357 6 -25 -4 -62 -11
-84 -14 -94 -15 -275 -89 -376 -154 -330 -213 -530 -569 -534 -952 -1 -169 17
-286 66 -425 31 -86 102 -219 155 -290 25 -33 43 -58 40 -55 -4 3 -377 374
-829 826 -880 877 -887 883 -1071 968 -74 35 -203 77 -277 91 -45 8 -323 19
-330 12z"/>
<path d="M1389 2476 c-99 -29 -181 -77 -255 -150 -109 -109 -165 -235 -170
-386 -4 -116 13 -197 63 -300 30 -63 55 -94 157 -195 160 -157 419 -357 593
-457 198 -113 340 -183 498 -246 92 -37 239 -89 275 -98 8 -2 40 -10 70 -19
30 -9 62 -17 70 -19 8 -2 33 -9 55 -15 22 -5 54 -13 70 -15 17 -3 41 -8 55
-11 14 -3 39 -7 55 -10 17 -3 53 -10 80 -15 142 -26 273 -35 525 -35 288 0
435 13 669 61 170 35 430 110 546 159 267 112 379 167 556 276 104 63 341 227
359 248 3 3 34 30 70 60 129 107 263 252 302 326 81 155 89 350 21 504 -120
273 -414 418 -692 341 -125 -35 -173 -65 -317 -196 -104 -95 -174 -152 -264
-216 -81 -56 -237 -148 -252 -148 -6 0 -19 -6 -27 -13 -47 -40 -380 -155 -521
-180 -22 -4 -304 -79 -530 -142 -47 -13 -101 -26 -120 -30 -90 -19 -162 -79
-185 -157 -42 -142 59 -278 206 -278 21 0 157 32 301 71 145 38 297 79 338 90
41 11 118 32 170 46 52 14 108 27 124 28 39 4 76 -33 76 -75 0 -60 -20 -69
-360 -159 -173 -46 -352 -94 -397 -107 -45 -13 -95 -26 -112 -29 -16 -3 -40
-9 -53 -14 -37 -13 -129 -11 -185 5 -89 25 -159 73 -208 144 -105 151 -85 352
47 483 37 37 123 87 149 87 25 0 2 10 -37 15 -124 18 -315 66 -434 109 -262
96 -552 277 -756 472 -97 92 -137 122 -215 158 -131 61 -273 72 -410 32z"/>
</g>
</svg>
